<?xml version="1.0" standalone="no"?>
<!DOCTYPE svg PUBLIC "-//W3C//DTD SVG 20010904//EN"
 "http://www.w3.org/TR/2001/REC-SVG-20010904/DTD/svg10.dtd">
<svg version="1.0" xmlns="http://www.w3.org/2000/svg"
 width="697.000000pt" height="697.000000pt" viewBox="0 0 697.000000 697.000000"
 preserveAspectRatio="xMidYMid meet">
<metadata>
Created by potrace 1.11, written by Peter Selinger 2001-2013
</metadata>
<g transform="translate(0.000000,697.000000) scale(0.100000,-0.100000)"
fill="#000000" stroke="none">
<path d="M60 6723 c-8 -4 -25 -18 -37 -32 l-23 -26 0 -3167 c0 -2434 3 -3173
12 -3193 27 -59 -235 -55 3470 -55 1872 0 3413 3 3425 6 13 4 32 21 43 39 20
32 20 44 20 3194 0 3442 4 3202 -55 3229 -20 9 -811 12 -3433 11 -1874 0
-3414 -3 -3422 -6z"/>
</g>
</svg>
